<?xml version="1.0" encoding="UTF-8"?>
<svg id="Capa_1" data-name="Capa 1" xmlns="http://www.w3.org/2000/svg" viewBox="0 0 770.43 150">
  <defs>
    <style>
      .cls-1 {
        fill: #0067b0;
      }

      .cls-2 {
        fill: #ffcf00;
      }
    </style>
  </defs>
  <g>
    <polygon class="cls-2" points="21.47 75.05 52.44 44.1 52.44 105.97 21.47 75.05"/>
    <polygon class="cls-2" points="88.02 111.35 88.02 141.49 56.34 109.75 56.34 79.61 88.02 111.35"/>
    <polygon class="cls-2" points="59.08 37.48 88.07 8.53 88.07 37.48 59.08 37.48"/>
    <rect class="cls-2" x="56.33" y="41.34" width="31.73" height="31.68"/>
    <polygon class="cls-2" points="59.08 76.89 88.07 76.89 88.07 105.84 59.08 76.89"/>
    <polygon class="cls-2" points="156.54 5.8 91.95 70.4 91.95 5.8 156.54 5.8"/>
    <polygon class="cls-2" points="91.87 144.2 91.87 79.61 156.46 144.2 91.87 144.2"/>
  </g>
  <path class="cls-1" d="m198.5,99.79c-7.05,0-12.87-2.35-17.68-6.94-4.7-4.7-7.05-10.52-7.05-17.57s2.35-12.87,7.16-17.57c4.81-4.7,10.63-7.05,17.57-7.05,7.95,0,14.55,2.91,19.81,8.84l11.75-9.96c-7.95-9.06-19.14-14.55-31.56-14.55-11.75,0-21.6,3.8-29.77,11.53-8.17,7.72-12.2,17.23-12.2,28.76s4.03,21.04,12.2,28.76c8.17,7.61,18.02,11.41,29.77,11.41,12.42,0,23.72-5.37,31.67-14.66l-11.75-9.96c-5.26,5.93-11.86,8.95-19.92,8.95Zm63-43.64c-8.73,0-16.12,2.91-22.27,8.73-6.04,5.71-9.06,12.76-9.06,21.15s3.02,15.44,9.06,21.26c6.16,5.71,13.54,8.62,22.27,8.62s16-2.91,22.16-8.62c6.16-5.82,9.18-12.87,9.18-21.26s-3.02-15.44-9.18-21.15c-6.16-5.82-13.54-8.73-22.16-8.73Zm10.41,40.4c-2.8,2.8-6.27,4.25-10.41,4.25s-7.61-1.45-10.41-4.25c-2.8-2.8-4.25-6.38-4.25-10.52s1.45-7.61,4.25-10.41c2.8-2.91,6.27-4.37,10.41-4.37s7.61,1.45,10.41,4.37c2.8,2.8,4.25,6.26,4.25,10.41s-1.46,7.61-4.25,10.52Zm41.75-3.25v-57.07h-16.67v59.65c0,13.21,6.38,19.81,19.25,19.81l7.95.02v-15.13c-8.73,0-10.52-2.24-10.52-7.27Zm121.52,1.12v-36.59h-16.67v31.67c0,6.6-4.25,11.19-10.41,11.19s-9.74-4.03-9.74-10.63v-32.23h-16.67v34.24c0,14.66,7.95,23.39,22.16,23.39,8.17,0,13.76-2.8,16.56-8.28.78,2.35,2.46,4.37,5.04,6.04,2.35,1.34,5.48,2.01,9.18,2.01,3.25,0,5.71-.34,7.5-.89v-13.88s-2.01.01-2.8.01c-3.02,0-4.14-1.58-4.14-6.06Zm45.54-37.6c-8.5,0-15.11,3.47-16.79,8.39v-28.98h-16.67v78h16.67v-7.39c1.68,4.92,8.28,8.39,16.79,8.39,7.95,0,14.66-2.8,19.92-8.39,5.37-5.71,8.06-12.65,8.06-20.81s-2.69-15.11-8.06-20.7c-5.26-5.71-11.97-8.5-19.92-8.5Zm7.16,39.28c-2.8,2.69-6.16,4.03-10.18,4.03s-7.61-1.34-10.52-4.03c-2.8-2.8-4.25-6.15-4.25-10.07s1.45-7.27,4.25-9.96c2.91-2.8,6.38-4.14,10.52-4.14s7.39,1.34,10.18,4.14c2.8,2.68,4.14,6.04,4.14,9.96s-1.34,7.27-4.14,10.07Zm56.85-15.33c-6.27-2.24-10.97-3.02-13.09-3.92-1.79-.78-2.35-1.57-2.35-3.02,0-2.13,2.01-3.58,5.6-3.58,4.81,0,8.84,1.34,11.86,4.14l7.95-10.97c-5.04-4.81-11.41-7.27-19.36-7.27-6.16,0-11.3,1.57-15.56,4.81-4.25,3.13-6.38,7.61-6.38,13.32,0,7.5,4.36,12.65,12.98,15.67,1.68.56,4.25,1.34,7.61,2.13,3.36.78,5.6,1.57,6.83,2.24,1.23.67,1.9,1.57,1.9,2.69,0,3.02-2.8,4.59-8.51,4.59-6.38,0-12.31-2.46-15.44-6.16l-9.62,10.3c5.48,6.71,13.65,10.07,24.62,10.07,16.56,0,24.84-7.5,24.84-19.02,0-7.5-4.59-12.87-13.88-16Zm-180.94,0c-6.27-2.24-10.97-3.02-13.09-3.92-1.79-.78-2.35-1.57-2.35-3.02,0-2.13,2.01-3.58,5.6-3.58,4.81,0,8.84,1.34,11.86,4.14l7.95-10.97c-5.04-4.81-11.41-7.27-19.36-7.27-6.16,0-11.3,1.57-15.56,4.81-4.25,3.13-6.38,7.61-6.38,13.32,0,7.5,4.36,12.65,12.98,15.67,1.68.56,4.25,1.34,7.61,2.13s5.6,1.57,6.83,2.24c1.23.67,1.9,1.57,1.9,2.69,0,3.02-2.8,4.59-8.51,4.59-6.38,0-12.31-2.46-15.44-6.16l-9.62,10.3c5.48,6.71,13.65,10.07,24.62,10.07,16.56,0,24.84-7.5,24.84-19.02,0-7.5-4.59-12.87-13.88-16Zm208.81-27.75c5.26,0,9.51-4.14,9.51-9.4s-4.25-9.51-9.51-9.51-9.51,4.14-9.51,9.51,4.25,9.4,9.51,9.4Zm10.03,46.77c-.66-.46-1.04-1.19-1.26-1.94-.33-1.1-.38-2.28-.38-3.42v-36.59h-16.67v41.52c0,10.63,4.92,15.89,14.77,15.89h7.72v-14.76c-.32-.02-.65-.04-.97-.05-1.08-.07-2.28,0-3.21-.64Zm67.74-5.36v-58.19h-16.67v28.98c-1.68-4.92-8.28-8.39-16.79-8.39-7.95,0-14.66,2.8-20.03,8.5-5.26,5.6-7.95,12.53-7.95,20.7s2.69,15.22,7.95,20.93c5.37,5.6,12.09,8.39,20.03,8.39,8.84,0,15-2.68,18.69-8.17.78,2.35,2.46,4.37,5.04,6.04,2.35,1.34,5.48,2.01,9.18,2.01,3.25,0,7.5.02,7.5.02v-14.8s-2.01.01-2.8.01c-3.02,0-4.14-1.58-4.14-6.06Zm-20.03,1.68c-2.8,2.69-6.27,4.03-10.41,4.03s-7.39-1.34-10.18-4.03c-2.8-2.8-4.14-6.15-4.14-10.07s1.34-7.27,4.14-9.96c2.8-2.8,6.15-4.14,10.18-4.14s7.61,1.34,10.41,4.14c2.91,2.68,4.37,6.04,4.37,9.96s-1.46,7.27-4.37,10.07Zm109.45-31.22c-6.16-5.82-13.54-8.73-22.16-8.73s-16.12,2.91-22.27,8.73c-6.04,5.71-9.06,12.76-9.06,21.15s3.02,15.44,9.06,21.26c6.16,5.71,13.54,8.62,22.27,8.62s16-2.91,22.16-8.62c6.16-5.82,9.18-12.87,9.18-21.26s-3.02-15.44-9.18-21.15Zm-11.75,31.67c-2.8,2.8-6.27,4.25-10.41,4.25s-7.61-1.45-10.41-4.25c-2.8-2.8-4.25-6.38-4.25-10.52s1.45-7.61,4.25-10.41c2.8-2.91,6.27-4.37,10.41-4.37s7.61,1.45,10.41,4.37c2.8,2.8,4.25,6.26,4.25,10.41s-1.46,7.61-4.25,10.52Zm-59-43.53c5.26,0,9.51-4.14,9.51-9.4s-4.25-9.51-9.51-9.51-9.51,4.14-9.51,9.51,4.25,9.4,9.51,9.4Zm10.03,46.77c-.66-.46-1.04-1.19-1.26-1.94-.33-1.1-.38-2.28-.38-3.42v-36.59h-16.67v41.52c0,10.63,4.92,15.89,14.77,15.89h7.72v-14.76c-.32-.02-.65-.04-.97-.05-1.08-.07-2.28,0-3.21-.64Z"/>
</svg>